# xmcd CD database file
#
# Track frame offsets:
#	150
#	30219
#	57865
#	87089
#	107404
#	131836
#	159229
#
# Disc length: 2399 seconds
#
# Revision: 0
# Processed by: cddbd v1.5.2PL0 Copyright (c) Steve Scherf et al.
# Submitted via: CDex 1.70beta3
#
DISCID=46095d07
DTITLE=白木秀雄 - プレイズ・ホレス・シルヴァー
DYEAR=1962
DGENRE=Jazz
TTITLE0=セニョール・ブルース
TTITLE1=シスター・セディ
TTITLE2=ドゥーイング・ザ・シング
TTITLE3=ブロウィング・ザ・ブルース・アウェイ
TTITLE4=プリーチャー
TTITLE5=スウィンギング・ザ・サンバ
TTITLE6=フィルシー・マクナスティ
EXTD=YEAR: 1962
EXTT0=
EXTT1=
EXTT2=
EXTT3=
EXTT4=
EXTT5=
EXTT6=
PLAYORDER=
